# xmcd
#
# Track frame offsets:
#      182
#      13815
#      31635
#      44977
#      56427
#      68870
#      81517
#      91160
#      104120
#      113467
#      127230
#      139967
# 
# Disc length: 2051 seconds
#
# Revision: 2
# Processed by: cddbd v1.4PL0 Copyright (c) Steve Scherf et al.
#
# Submitted via: FreeRIP 1.20
#
DISCID=ad08010c
DTITLE=Eddy Arnold - Best Of Eddy Arnold (Volume 2)
DYEAR=1970
DGENRE=General Country
TTITLE0=The Tip Of My Fingers
TTITLE1=You Gave Me A Mountain
TTITLE2=Release Me (And Let Me Love Again)
TTITLE3=Turn The World Around
TTITLE4=It's Such A Pretty World Today
TTITLE5=Lonely Again
TTITLE6=Misty Blue
TTITLE7=All The Time
TTITLE8=Somebody Like Me
TTITLE9=It's Over
TTITLE10=Then You Can Tell Me Goodbye
TTITLE11=Tennessee Stud
EXTD=
EXTT0=
EXTT1=
EXTT2=
EXTT3=
EXTT4=
EXTT5=
EXTT6=
EXTT7=
EXTT8=
EXTT9=
EXTT10=
EXTT11=
PLAYORDER=
